<?xml version="1.0" encoding="utf-8"?>
<!-- Generator: Adobe Illustrator 16.0.0, SVG Export Plug-In . SVG Version: 6.00 Build 0)  -->
<!DOCTYPE svg PUBLIC "-//W3C//DTD SVG 1.1//EN" "http://www.w3.org/Graphics/SVG/1.1/DTD/svg11.dtd">
<svg version="1.1" id="Layer_1" xmlns="http://www.w3.org/2000/svg" xmlns:xlink="http://www.w3.org/1999/xlink" x="0px" y="0px"
	 width="204px" height="193.999px" viewBox="0 0 204 193.999" enable-background="new 0 0 204 193.999" xml:space="preserve">
<g>
	<path fill="none" stroke="#0F143F" stroke-width="2" stroke-miterlimit="10" d="M57.901,189.562c0,1.898-1.989,3.438-4.442,3.438
		H5.442c-2.454,0-4.442-1.539-4.442-3.438V69.603c0-1.898,1.989-3.438,4.442-3.438h48.017c2.454,0,4.442,1.539,4.442,3.438V189.562z
		"/>
	<path fill="none" stroke="#0F143F" stroke-width="2" stroke-miterlimit="10" d="M129.977,188.694c0,2.377-1.989,4.305-4.443,4.305
		H77.518c-2.454,0-4.442-1.928-4.442-4.305V38.47c0-2.377,1.989-4.305,4.442-4.305h48.016c2.454,0,4.443,1.928,4.443,4.305V188.694z
		"/>
	<path fill="none" stroke="#0F143F" stroke-width="2" stroke-miterlimit="10" d="M203,187.795c0,2.874-1.988,5.204-4.442,5.204
		h-48.017c-2.454,0-4.442-2.33-4.442-5.204V6.204c0-2.874,1.989-5.204,4.442-5.204h48.017C201.012,1,203,3.33,203,6.204V187.795z"/>
</g>
</svg>
