<?xml version="1.0" encoding="utf-8"?>
<!-- Generator: Adobe Illustrator 16.0.0, SVG Export Plug-In . SVG Version: 6.00 Build 0)  -->
<!DOCTYPE svg PUBLIC "-//W3C//DTD SVG 1.1//EN" "http://www.w3.org/Graphics/SVG/1.1/DTD/svg11.dtd">
<svg version="1.1" id="Layer_1" xmlns="http://www.w3.org/2000/svg" xmlns:xlink="http://www.w3.org/1999/xlink" x="0px" y="0px"
	 width="157.693px" height="205.36px" viewBox="0 0 157.693 205.36" enable-background="new 0 0 157.693 205.36"
	 xml:space="preserve">
<g>
	<path fill="none" stroke="#0F1540" stroke-width="2" stroke-miterlimit="10" d="M127.285,97.222
		c-0.77,1.826-1.196,3.833-1.196,5.939v-5.939H127.285z"/>
	<path fill="none" stroke="#0F1540" stroke-width="2" stroke-miterlimit="10" d="M156.693,103.165v79.351
		c0,12.073-9.571,21.845-21.376,21.845H55.66c-4.151,0-8.025-1.213-11.309-3.302l-10.067-18.533v-0.01L23.07,155.852l-19.534-44.46
		c-4.543-5.84-2.816-14.782,3.865-19.964c3.072-2.396,6.66-3.569,10.077-3.569c3.999,0,7.777,1.613,10.221,4.762l6.585,8.465
		l0.801,1.03c-0.334-0.982-0.572-2.023-0.697-3.091c-0.066-0.592-0.104-1.193-0.104-1.804V27.746
		c0-8.446,6.842-15.298,15.297-15.298c4.228,0,8.055,1.708,10.822,4.485c2.768,2.757,4.476,6.594,4.476,10.813V80.91
		c0-8.455,6.853-15.307,15.308-15.307c4.218,0,8.054,1.717,10.813,4.485c2.776,2.768,4.484,6.585,4.484,10.822v8.532
		c0-8.446,6.853-15.298,15.308-15.298c4.218,0,8.045,1.708,10.812,4.476c2.778,2.768,4.486,6.594,4.486,10.822v13.723
		c0-2.109,0.43-4.113,1.193-5.945c2.318-5.498,7.758-9.362,14.104-9.362c4.228,0,8.055,1.718,10.821,4.485
		c1.556,1.556,2.777,3.436,3.551,5.545C156.359,99.529,156.693,101.313,156.693,103.165z"/>
	<line fill="none" stroke="#0F1540" stroke-width="2" stroke-miterlimit="10" x1="64.883" y1="80.906" x2="64.883" y2="102.115"/>
	<line fill="none" stroke="#0F1540" stroke-width="2" stroke-miterlimit="10" x1="95.485" y1="89.441" x2="95.485" y2="97.887"/>
	<path fill="none" stroke="#0F1540" stroke-width="2" stroke-miterlimit="10" d="M33.327,7.854c9.138-9.138,23.926-9.138,33.064,0"
		/>
</g>
</svg>
