<?xml version="1.0" encoding="utf-8"?>
<!-- Generator: Adobe Illustrator 16.0.0, SVG Export Plug-In . SVG Version: 6.00 Build 0)  -->
<!DOCTYPE svg PUBLIC "-//W3C//DTD SVG 1.1//EN" "http://www.w3.org/Graphics/SVG/1.1/DTD/svg11.dtd">
<svg version="1.1" id="Layer_1" xmlns="http://www.w3.org/2000/svg" xmlns:xlink="http://www.w3.org/1999/xlink" x="0px" y="0px"
	 width="715.691px" height="125.01px" viewBox="-152.553 -339.459 715.691 125.01"
	 enable-background="new -152.553 -339.459 715.691 125.01" xml:space="preserve">
<circle display="none" stroke="#000000" stroke-width="2" stroke-miterlimit="10" cx="36.387" cy="6.983" r="4.521"/>
<circle display="none" stroke="#000000" stroke-width="2" stroke-miterlimit="10" cx="48.387" cy="11.504" r="4.521"/>
<g>
	<path fill="#000A41" d="M-150.353-247.152c3.9,2.4,9.601,4.4,15.601,4.4c8.9,0,14.102-4.7,14.102-11.5
		c0-6.301-3.601-9.9-12.701-13.401c-11-3.899-17.801-9.601-17.801-19.101c0-10.501,8.7-18.302,21.801-18.302
		c6.9,0,11.9,1.601,14.901,3.3l-2.4,7.102c-2.2-1.201-6.7-3.201-12.801-3.201c-9.2,0-12.7,5.501-12.7,10.102c0,6.3,4.1,9.4,13.4,13
		c11.4,4.4,17.201,9.9,17.201,19.801c0,10.401-7.701,19.402-23.602,19.402c-6.5,0-13.602-1.9-17.201-4.301L-150.353-247.152z"/>
	<path fill="#000A41" d="M-94.652-259.152c0.199,11.9,7.801,16.801,16.601,16.801c6.3,0,10.101-1.1,13.401-2.5l1.5,6.301
		c-3.101,1.399-8.4,3-16.102,3c-14.9,0-23.801-9.801-23.801-24.402c0-14.601,8.6-26.102,22.701-26.102
		c15.801,0,20.001,13.901,20.001,22.802c0,1.8-0.2,3.2-0.3,4.101H-94.652z M-68.852-265.453c0.101-5.6-2.3-14.301-12.2-14.301
		c-8.901,0-12.801,8.201-13.501,14.301H-68.852z"/>
	<path fill="#000A41" d="M-49.454-271.853c0-5-0.101-9.101-0.399-13.101h7.8l0.501,8.001h0.199c2.4-4.602,8-9.102,16.001-9.102
		c6.7,0,17.101,4,17.101,20.602v28.902h-8.8v-27.902c0-7.801-2.9-14.301-11.2-14.301c-5.801,0-10.301,4.1-11.801,9
		c-0.4,1.101-0.601,2.601-0.601,4.102v29.102h-8.801V-271.853z"/>
	<path fill="#000A41" d="M4.846-245.552c2.6,1.7,7.199,3.5,11.6,3.5c6.4,0,9.4-3.2,9.4-7.2c0-4.2-2.5-6.5-9-8.9
		c-8.701-3.101-12.801-7.9-12.801-13.701c0-7.801,6.301-14.201,16.701-14.201c4.9,0,9.201,1.4,11.9,3l-2.199,6.4
		c-1.9-1.199-5.4-2.8-9.901-2.8c-5.2,0-8.101,3.001-8.101,6.601c0,4,2.9,5.801,9.201,8.201c8.4,3.199,12.7,7.4,12.7,14.6
		c0,8.501-6.601,14.502-18.101,14.502c-5.301,0-10.201-1.301-13.602-3.301L4.846-245.552z"/>
	<path fill="#000A41" d="M89.447-261.152c0,17.9-12.4,25.701-24.102,25.701c-13.101,0-23.201-9.601-23.201-24.901
		c0-16.201,10.601-25.702,24.002-25.702C80.047-286.054,89.447-275.953,89.447-261.152z M51.045-260.652
		c0,10.6,6.101,18.601,14.701,18.601c8.4,0,14.701-7.9,14.701-18.801c0-8.2-4.101-18.602-14.502-18.602
		C55.545-279.454,51.045-269.853,51.045-260.652z"/>
	<path fill="#000A41" d="M100.544-269.853c0-5.7-0.101-10.601-0.399-15.101h7.7l0.3,9.501h0.4c2.199-6.501,7.5-10.602,13.4-10.602
		c1,0,1.7,0.101,2.5,0.301v8.301c-0.9-0.201-1.8-0.301-3-0.301c-6.2,0-10.601,4.7-11.801,11.301c-0.199,1.2-0.4,2.6-0.4,4.1v25.803
		h-8.7V-269.853z"/>
	<path fill="#000A41" d="M138.943-284.954l10.601,28.602c1.101,3.2,2.3,7.001,3.101,9.901h0.199c0.9-2.9,1.9-6.602,3.101-10.102
		l9.601-28.401h9.301l-13.201,34.502c-6.3,16.601-10.6,25.102-16.601,30.302c-4.3,3.801-8.601,5.301-10.801,5.701l-2.2-7.401
		c2.2-0.7,5.101-2.101,7.701-4.3c2.399-1.9,5.4-5.301,7.4-9.801c0.399-0.9,0.699-1.6,0.699-2.1s-0.199-1.201-0.6-2.301
		l-17.901-44.603H138.943z"/>
	<path fill="#000A41" d="M213.043-303.955v67.404h-8.701v-67.404H213.043z"/>
	<path fill="#000A41" d="M228.941-271.853c0-5-0.102-9.101-0.4-13.101h7.801l0.5,8.001h0.199c2.4-4.602,8-9.102,16.002-9.102
		c6.699,0,17.1,4,17.1,20.602v28.902h-8.801v-27.902c0-7.801-2.898-14.301-11.199-14.301c-5.801,0-10.301,4.1-11.801,9
		c-0.4,1.101-0.602,2.601-0.602,4.102v29.102h-8.799V-271.853z"/>
	<path fill="#000A41" d="M294.641-298.855v13.901h12.602v6.7h-12.602v26.102c0,6,1.701,9.4,6.602,9.4c2.299,0,4-0.3,5.1-0.6l0.4,6.6
		c-1.701,0.701-4.4,1.201-7.801,1.201c-4.1,0-7.4-1.301-9.5-3.701c-2.502-2.6-3.4-6.9-3.4-12.6v-26.402h-7.502v-6.7h7.502v-11.601
		L294.641-298.855z"/>
	<path fill="#000A41" d="M321.439-259.152c0.199,11.9,7.801,16.801,16.602,16.801c6.301,0,10.1-1.1,13.4-2.5l1.5,6.301
		c-3.1,1.399-8.4,3-16.102,3c-14.9,0-23.801-9.801-23.801-24.402c0-14.601,8.6-26.102,22.701-26.102
		c15.801,0,20.002,13.901,20.002,22.802c0,1.8-0.201,3.2-0.301,4.101H321.439z M347.24-265.453
		c0.102-5.6-2.299-14.301-12.199-14.301c-8.9,0-12.801,8.201-13.502,14.301H347.24z"/>
	<path fill="#000A41" d="M366.639-269.853c0-5.7-0.1-10.601-0.4-15.101h7.701l0.301,9.501h0.398
		c2.201-6.501,7.502-10.602,13.402-10.602c1,0,1.699,0.101,2.5,0.301v8.301c-0.9-0.201-1.801-0.301-3-0.301
		c-6.201,0-10.602,4.7-11.801,11.301c-0.201,1.2-0.4,2.6-0.4,4.1v25.803h-8.701V-269.853z"/>
	<path fill="#000A41" d="M403.238-236.551v-41.703h-6.801v-6.7h6.801v-2.3c0-6.801,1.5-13.002,5.6-16.901
		c3.301-3.2,7.701-4.501,11.801-4.501c3.102,0,5.801,0.701,7.5,1.4l-1.199,6.801c-1.301-0.6-3.1-1.1-5.6-1.1
		c-7.502,0-9.4,6.6-9.4,14v2.601h11.699v6.7h-11.699v41.703H403.238z"/>
	<path fill="#000A41" d="M458.34-236.551l-0.701-6.102h-0.301c-2.699,3.801-7.9,7.201-14.801,7.201c-9.799,0-14.801-6.9-14.801-13.9
		c0-11.701,10.4-18.102,29.102-18.002v-1c0-4-1.1-11.2-11-11.2c-4.5,0-9.201,1.399-12.6,3.601l-2.002-5.801
		c4.002-2.6,9.801-4.301,15.902-4.301c14.801,0,18.4,10.102,18.4,19.802v18.101c0,4.201,0.201,8.301,0.801,11.602H458.34z
		 M457.039-261.253c-9.602-0.2-20.502,1.501-20.502,10.901c0,5.699,3.801,8.4,8.301,8.4c6.301,0,10.301-4,11.701-8.102
		c0.299-0.899,0.5-1.899,0.5-2.799V-261.253z"/>
	<path fill="#000A41" d="M514.238-238.351c-2.301,1.2-7.4,2.801-13.9,2.801c-14.602,0-24.102-9.9-24.102-24.702
		c0-14.901,10.201-25.701,26.002-25.701c5.199,0,9.801,1.3,12.201,2.5l-2,6.8c-2.102-1.199-5.4-2.299-10.201-2.299
		c-11.102,0-17.102,8.199-17.102,18.301c0,11.2,7.201,18.101,16.801,18.101c5,0,8.301-1.3,10.801-2.399L514.238-238.351z"/>
	<path fill="#000A41" d="M528.838-259.152c0.199,11.9,7.799,16.801,16.6,16.801c6.301,0,10.102-1.1,13.4-2.5l1.502,6.301
		c-3.102,1.399-8.402,3-16.102,3c-14.9,0-23.803-9.801-23.803-24.402c0-14.601,8.602-26.102,22.703-26.102
		c15.801,0,20,13.901,20,22.802c0,1.8-0.199,3.2-0.299,4.101H528.838z M554.639-265.453c0.1-5.6-2.301-14.301-12.201-14.301
		c-8.9,0-12.801,8.201-13.5,14.301H554.639z"/>
</g>
<path fill="#000A41" d="M228.463-308.656c-2.08,8.929-10.27,15.588-20.05,15.588c-9.78,0-17.97-6.659-20.05-15.588H228.463z"/>
<g>
	<circle fill="#000A41" cx="198.24" cy="-315.637" r="3.863"/>
	<circle fill="#000A41" cx="208.413" cy="-315.637" r="3.863"/>
	<circle fill="#000A41" cx="218.586" cy="-315.637" r="3.863"/>
	<circle fill="#000A41" cx="218.586" cy="-325.461" r="3.863"/>
	<circle fill="#000A41" cx="218.586" cy="-335.595" r="3.863"/>
	<circle fill="#000A41" cx="208.414" cy="-325.461" r="3.863"/>
</g>
</svg>
