<?xml version="1.0" encoding="utf-8"?>
<!-- Generator: Adobe Illustrator 16.0.0, SVG Export Plug-In . SVG Version: 6.00 Build 0)  -->
<!DOCTYPE svg PUBLIC "-//W3C//DTD SVG 1.1//EN" "http://www.w3.org/Graphics/SVG/1.1/DTD/svg11.dtd">
<svg version="1.1" id="Layer_1" xmlns="http://www.w3.org/2000/svg" xmlns:xlink="http://www.w3.org/1999/xlink" x="0px" y="0px"
	 width="337.22px" height="332.864px" viewBox="0 0 337.22 332.864" enable-background="new 0 0 337.22 332.864"
	 xml:space="preserve">
<path stroke="#FFFFFF" stroke-miterlimit="10" d="M336.72,90.03c0,16.52-4.479,32-12.29,45.28l-15.31,19.36L168.75,332.059
	L27.07,153.67l-13.36-16.81c0,0-0.01-0.01-0.01-0.02C5.33,123.22,0.5,107.19,0.5,90.03c0-9.46,1.47-18.57,4.19-27.13
	C16.18,26.71,50.04,0.5,90.03,0.5c33.89,0,63.38,18.83,78.58,46.6c15.2-27.77,44.69-46.6,78.581-46.6
	c39.869,0,73.659,26.07,85.239,62.1C335.22,71.24,336.72,80.46,336.72,90.03z"/>
</svg>
