<svg xmlns="http://www.w3.org/2000/svg" xmlns:xlink="http://www.w3.org/1999/xlink" width="764.656" height="440.64" viewBox="0 0 764.656 440.64">
  <defs>
    <linearGradient id="linear-gradient" x1="0.5" y1="1" x2="0.5" gradientUnits="objectBoundingBox">
      <stop offset="0" stop-color="gray" stop-opacity="0.251"/>
      <stop offset="0.54" stop-color="gray" stop-opacity="0.122"/>
      <stop offset="1" stop-color="gray" stop-opacity="0.102"/>
    </linearGradient>
    <linearGradient id="linear-gradient-2" y1="1" y2="0" xlink:href="#linear-gradient"/>
  </defs>
  <g id="undraw_finance_0bdk" transform="translate(-0.003 -0.06)">
    <path id="Path_203" data-name="Path 203" d="M314.04,530.53c-46.231-15.974-99.091-29.5-142.285-6.54-5.474,2.909-10.869,6.572-13.818,12.023-7.791,14.339,4.593,32.934-1.443,48.091s-28.75,22.787-26.891,38.978c.489,4.232,2.781,8.063,5.482,11.365,16.92,20.671,47.939,22.763,74.156,17.633s51.858-15.766,78.548-14.427c25.648,1.323,49.245,13.626,72.746,23.981,39.619,17.505,85.89,30.065,125.477,12.472,18.138-8.063,33.135-21.793,50.5-31.379a124.282,124.282,0,0,1,76.7-14.075c17.633,2.485,34.465,8.737,51.722,13.049,39.194,9.786,80.1,9.466,120.492,9.081,7.518-.072,15.157-.16,22.362-2.308,10.668-3.206,19.469-10.588,27.941-17.81,11.133-9.482,22.859-19.9,26.45-34.08,4.24-16.832-4.537-34.722-17.553-46.159s-29.656-17.689-45.895-23.717c-4.008-1.475-8.288-2.974-12.391-1.86a16.9,16.9,0,0,0-6.973,4.464c-11.526,11.093-21.264,29.856-36.982,26.843-5.611-1.074-10.2-4.977-14.644-8.584-23.709-19.236-55.6-34.088-84.215-23.46-20.928,7.775-35.7,27.74-56.908,34.786-15.084,5.017-31.475,2.845-47.345,3.823-23.084,1.411-45.55,9.57-68.666,9.073-58.943-1.266-108.052-57.629-166.755-52.259-4.6.417-9.618,1.475-12.439,5.114" transform="translate(-124.289 -241.885)" fill="#2d85d5" opacity="0.25"/>
    <path id="Path_204" data-name="Path 204" d="M263.717,467.254s-48.981,29.568,41.342,75.11c0,0,19.9-36.95-2.1-67.079a29.656,29.656,0,0,0-38.473-8.432Z" transform="translate(-148.298 -232.222)" fill="#6a52df"/>
    <path id="Path_205" data-name="Path 205" d="M267.73,467.52s41.935,32.061,40.765,75.7" transform="translate(-151.726 -233.105)" fill="none" stroke="#535461" stroke-miterlimit="10" stroke-width="1"/>
    <path id="Path_206" data-name="Path 206" d="M1006.9,424.761c9.923,36.285-32.405,139.656-32.405,139.656s-89.064-67.432-99-103.716A68.129,68.129,0,1,1,1006.9,424.753Z" transform="translate(-271.794 -214.36)" fill="#6c63ff"/>
    <path id="Path_207" data-name="Path 207" d="M1006.9,424.761c9.923,36.285-32.405,139.656-32.405,139.656s-89.064-67.432-99-103.716A68.129,68.129,0,1,1,1006.9,424.753Z" transform="translate(-271.794 -214.36)" fill="#6a52df" opacity="0.1"/>
    <path id="Path_208" data-name="Path 208" d="M936.21,378.27s55.441,83.694,51.3,187.378" transform="translate(-284.409 -215.39)" fill="none" stroke="#535461" stroke-miterlimit="10" stroke-width="1"/>
    <path id="Path_209" data-name="Path 209" d="M1046.789,519.464s-50.271-27.348-43.907,73.6c0,0,41.935-1.5,56.819-35.708a29.656,29.656,0,0,0-12.175-37.471Z" transform="translate(-297.532 -242.745)" fill="#6a52df"/>
    <path id="Path_210" data-name="Path 210" d="M1047.752,520.52s-6.492,52.4-44.733,73.427" transform="translate(-297.67 -243.625)" fill="#6a52df" stroke="#535461" stroke-miterlimit="10" stroke-width="1"/>
    <path id="Path_211" data-name="Path 211" d="M136.274,505.216s-49,29.56,41.326,75.078c0,0,19.9-36.95-2.1-67.079a29.656,29.656,0,0,0-38.473-8.432Z" transform="translate(-123 -239.75)" fill="#6a52df"/>
    <path id="Path_212" data-name="Path 212" d="M140.26,505.49s41.935,32.061,40.765,75.7" transform="translate(-126.425 -240.641)" fill="none" stroke="#535461" stroke-miterlimit="10" stroke-width="1"/>
    <path id="Path_213" data-name="Path 213" d="M768.983,490.032h-51.5a17.168,17.168,0,0,0,1.8-7.671V247.871A17.241,17.241,0,0,0,702.04,230.63H303.423a17.241,17.241,0,0,0-17.241,17.241v234.5a17.169,17.169,0,0,0,1.8,7.671H234.661a4.561,4.561,0,0,0-4.561,4.585V498.3a25.5,25.5,0,0,0,25.5,25.5H748.039a25.5,25.5,0,0,0,25.5-25.5v-3.679a4.561,4.561,0,0,0-4.561-4.593ZM451.671,504.62l-4.44-5.01H556.862l-4.889,5.018Z" transform="translate(-144.257 -186.086)" fill="url(#linear-gradient)"/>
    <rect id="Rectangle_22" data-name="Rectangle 22" width="423.296" height="262.889" rx="23.26" transform="translate(146.806 47.862)" fill="#535461"/>
    <rect id="Rectangle_23" data-name="Rectangle 23" width="404.581" height="214.766" transform="translate(155.719 86.183)" fill="#fff"/>
    <circle id="Ellipse_27" data-name="Ellipse 27" cx="3.567" cy="3.567" r="3.567" transform="translate(354.447 63.901)" fill="#fff"/>
    <path id="Path_214" data-name="Path 214" d="M566.257,551.08l-13.9,14.259H454.365l-12.56-14.259H242.236a4.456,4.456,0,0,0-4.456,4.457v3.591a24.927,24.927,0,0,0,24.927,24.927H743.985a24.927,24.927,0,0,0,24.927-24.927v-3.591a4.456,4.456,0,0,0-4.456-4.457Z" transform="translate(-145.781 -249.69)" fill="#535461"/>
    <path id="Path_215" data-name="Path 215" d="M258.77,124.19V306.871H560.861" transform="translate(-51.361 -24.638)" fill="none" stroke="#535461" stroke-miterlimit="10" stroke-width="2"/>
    <rect id="Rectangle_24" data-name="Rectangle 24" width="31.187" height="48.123" transform="translate(234.139 226.985)" fill="#6a52df" opacity="0.5"/>
    <rect id="Rectangle_25" data-name="Rectangle 25" width="31.187" height="90.9" transform="translate(287.608 184.208)" fill="#6a52df" opacity="0.7"/>
    <rect id="Rectangle_26" data-name="Rectangle 26" width="31.187" height="65.051" transform="translate(341.077 210.049)" fill="#6a52df" opacity="0.5"/>
    <rect id="Rectangle_27" data-name="Rectangle 27" width="31.187" height="105.159" transform="translate(394.547 169.949)" fill="#6a52df" opacity="0.8"/>
    <rect id="Rectangle_28" data-name="Rectangle 28" width="31.187" height="142.582" transform="translate(448.016 132.518)" fill="#6a52df"/>
    <path id="Path_216" data-name="Path 216" d="M311.02,226.407l54.359-49.013,53.469,46.336,52.579-56.138L524.9,145.31" transform="translate(-61.732 -28.83)" fill="none" stroke="#535461" stroke-miterlimit="10" stroke-width="2"/>
    <circle id="Ellipse_28" data-name="Ellipse 28" cx="6.236" cy="6.236" r="6.236" transform="translate(243.052 191.342)" fill="#6a52df"/>
    <circle id="Ellipse_29" data-name="Ellipse 29" cx="6.236" cy="6.236" r="6.236" transform="translate(349.99 187.775)" fill="#6a52df"/>
    <circle id="Ellipse_30" data-name="Ellipse 30" cx="6.236" cy="6.236" r="6.236" transform="translate(404.349 132.526)" fill="#6a52df"/>
    <circle id="Ellipse_31" data-name="Ellipse 31" cx="6.236" cy="6.236" r="6.236" transform="translate(297.411 141.431)" fill="#6a52df"/>
    <circle id="Ellipse_32" data-name="Ellipse 32" cx="6.236" cy="6.236" r="6.236" transform="translate(456.928 110.244)" fill="#6a52df"/>
    <path id="Path_217" data-name="Path 217" d="M945.1,484.266c-3.286-1.082-8.159-2.332-12.023-1.892-3.679-1.338-12.327-4.809-18.234-10.035a131.509,131.509,0,0,0-.393-15.405c-3.022-34.361,3.775-57.012,3.775-57.012s5.338-17.281,4.753-31.62c.345.649.537,1.034.537,1.034.465-12.367,4.681-25.168,7.839-33.143a2.662,2.662,0,0,0,.353-.128l3.527-8.368a7.251,7.251,0,0,0,.665-1.547l.569-1.322-.168-.072c.056-.216.112-.449.168-.681h0c2.252-9.53,4.008-32.133,4.008-32.133,6.043-23.789-8.3-38.473-8.3-38.473l-24.35-20.952a3.091,3.091,0,0,1,.24.858l-.2-.176c-.345-.986-.722-2.164-1.09-3.511a20.586,20.586,0,0,0,7.863-11.8,36.925,36.925,0,0,0,.361-8.817l-.4-10.107a32.057,32.057,0,0,0-.6-5.891c-1.835-8.015-10.051-13.626-18.3-13.994a66.875,66.875,0,0,0-7.855.417,52.853,52.853,0,0,1-6.412.136,1.155,1.155,0,0,1-.689-.184,1.01,1.01,0,0,1-.3-.7,3.478,3.478,0,0,1,.85-2.6,3.206,3.206,0,0,1,1.106-.633l-.585.136a3.207,3.207,0,0,1,.962-.521,18.67,18.67,0,0,0-6.075,2.2,7.845,7.845,0,0,0-1.419,1.194,6.2,6.2,0,0,0-2.052,3.815,7.1,7.1,0,0,1-2.164-3.206,3.205,3.205,0,0,1,0-1.555q-.216.265-.417.545v-.168a16.207,16.207,0,0,0-3.206,6.524,2.541,2.541,0,0,1-.577-1.876q-.18.565-.337,1.13a2.619,2.619,0,0,1,0-.753,25.821,25.821,0,0,0-1.258,8.961c0,3.03,1.346,7.751,4.593,8.817.168.056.337.1.513.136A20.382,20.382,0,0,0,884.12,232.03q.08.553.152,1.162h.128c.088.8.16,1.683.208,2.581a17.37,17.37,0,0,1-2.677,2.148,22.074,22.074,0,0,1-8.913,2.95,26.53,26.53,0,0,0-10.716,3.206c-3.887,2.172-8.175,5.338-9.522,9.185-2.244,6.412-14.6,16.391-22.891,17.633l-2.95-.168-.216-.064v.056l-.721-.04h-.232v.04l-.745-.04s-.072.345-.176.954c-4.168-1.435-13.025-5.41-24.55-15.87-12.824-11.646-30.177-9.354-36.87-7.887a1.146,1.146,0,0,0-.3,2.124c2.7,1.483,6.885,3.639,8.817,3.879,0,0-4.008,4.192.257,6.412a3.094,3.094,0,0,0,3.206-.313c2.068-1.515,7.815,1.916,16.143,3.7,0,0,23.5,24.318,35.17,28.053a16.815,16.815,0,0,0,.89,1.547l.721-.056v.056h.3l.088.8s18.146-.954,24.046-7.542a9.464,9.464,0,0,0,1.146-1.226l-6.308,79.35h.056l-.056.753h4.641a174.938,174.938,0,0,1-1.258,29.223v51.73s-.24,4.553,9.217,11.221a353.552,353.552,0,0,1,28.63,22.194l1.146.994c-1.739,15.83-5.378,45.334-8.416,46.432l1.876.329c-3.206,4.064-12.311,15.229-15.085,15.525-3.4.377-5.667,5.667,0,6.8a63.487,63.487,0,0,0,33.664-3.318,5.138,5.138,0,0,0,3.206-5.466l-1.1-8.336a1.17,1.17,0,0,1,.481.5c.753,2.268,0-3.022,0-3.022a236.242,236.242,0,0,0,7.3-30.458l11.221,9.7s.224-.28.617-.8c2.749,6.236,7.654,19,6.556,28.342-1.507,12.824,12.824,1.507,11.326-6.043-1.218-6.108,4.232-32,6.356-41.679A4.3,4.3,0,0,0,945.1,484.266Z" transform="translate(-249.936 -175.07)" fill="url(#linear-gradient-2)"/>
    <path id="Path_218" data-name="Path 218" d="M828.3,293.27s-10.692-1.843-26.546-16.223c-12.544-11.374-29.464-9.137-35.988-7.7a1.114,1.114,0,0,0-.3,2.068c2.637,1.443,6.725,3.551,8.64,3.791,0,0-3.951,4.088.249,6.276a3.022,3.022,0,0,0,3.158-.3c2.02-1.475,7.63,1.876,15.766,3.615,0,0,31.708,32.814,39.082,27.252Z" transform="translate(-250.403 -193.534)" fill="#fec3be"/>
    <path id="Path_219" data-name="Path 219" d="M912.11,239.9s2.95,12.536,0,21.384l13.273,1.843,11.8-5.9V249.49a53.167,53.167,0,0,1-4.056-25.44Z" transform="translate(-279.626 -184.78)" fill="#fec3be"/>
    <path id="Path_220" data-name="Path 220" d="M959,577.366s9.618,18.8,8.111,31.339,12.536,1.475,11.061-5.9c-1.194-5.963,4.128-31.259,6.2-40.669a4.2,4.2,0,0,0-2.789-4.9c-4.432-1.459-11.854-3.246-15.581-.513C960.5,560.775,959,577.366,959,577.366Z" transform="translate(-288.933 -250.529)" fill="#8b416f"/>
    <path id="Path_221" data-name="Path 221" d="M908.73,608.316s-12.536,16.223-15.854,16.591-5.531,5.531,0,6.637a61.99,61.99,0,0,0,32.862-3.206,5.017,5.017,0,0,0,3.15-5.338l-2.116-15.79Z" transform="translate(-275.139 -260.831)" fill="#8b416f"/>
    <path id="Path_222" data-name="Path 222" d="M884.717,393.78l-12.023,1.6a175.96,175.96,0,0,1-.144,42.264v50.5s-.232,4.448,9,10.917A345.171,345.171,0,0,1,909.508,520.7l33.455,28.983s13.273-16.223,11.43-25.809c0,0-22.122-7.005-25.071-18.435-1.691-6.54-10.267-12.023-17.289-15.469a21.5,21.5,0,0,1-11.5-24.4,18.812,18.812,0,0,1,1.883-4.737c5.9-10.323,14.379-33.551,14.379-33.551l-16.223-30.922Z" transform="translate(-271.773 -218.469)" fill="#4d4981"/>
    <path id="Path_223" data-name="Path 223" d="M884.717,393.78l-12.023,1.6a175.96,175.96,0,0,1-.144,42.264v50.5s-.232,4.448,9,10.917A345.171,345.171,0,0,1,909.508,520.7l33.455,28.983s13.273-16.223,11.43-25.809c0,0-22.122-7.005-25.071-18.435-1.691-6.54-10.267-12.023-17.289-15.469a21.5,21.5,0,0,1-11.5-24.4,18.812,18.812,0,0,1,1.883-4.737c5.9-10.323,14.379-33.551,14.379-33.551l-16.223-30.922Z" transform="translate(-271.773 -218.469)" opacity="0.05"/>
    <path id="Path_224" data-name="Path 224" d="M906.9,567.118s21.753,3.687,22.49,5.9,0-2.95,0-2.95,12.536-37.976,9.618-71.519,3.687-55.673,3.687-55.673,7.743-25.071,3.318-39.451-50.88-8.111-50.88-8.111,16.223,37.976,15.854,56.042c0,0,1.844,54.567,5.162,60.835C916.114,512.158,910.952,565.619,906.9,567.118Z" transform="translate(-276.255 -218.503)" fill="#4d4981"/>
    <path id="Path_225" data-name="Path 225" d="M904.881,255.79s2.212,13.626,24.334,7.743L914.5,375.608s-42.769,1.475-42.4-3.687l8.817-67.832Z" transform="translate(-271.684 -191.08)" fill="#fff"/>
    <path id="Path_226" data-name="Path 226" d="M899.7,254.87a17.97,17.97,0,0,1-10.652,5.058,25.912,25.912,0,0,0-10.468,3.11c-3.791,2.124-8.015,5.21-9.3,8.969-2.581,7.374-18.8,19.541-26.177,16.96l2.581,22.122s21.016-1.106,24.7-9.217l-6.26,78.941h5.531s2.95-21.384,5.162-25.809,6.637-28.758,7.005-34.658,5.9-39.819,10.692-45.686l7.214-17.513Z" transform="translate(-265.93 -190.897)" opacity="0.1"/>
    <path id="Path_227" data-name="Path 227" d="M899.524,256.25a22.819,22.819,0,0,1-11.389,4.689,25.915,25.915,0,0,0-10.46,3.126c-3.791,2.124-8.015,5.21-9.3,8.969-2.581,7.374-18.8,19.541-26.178,16.96l2.581,22.122s21.016-1.106,24.7-9.217l-6.268,78.893h5.531s2.95-21.384,5.162-25.809,6.636-28.758,7.005-34.658,5.9-39.819,10.692-45.686l7.919-17.185Z" transform="translate(-265.75 -191.171)" opacity="0.1"/>
    <path id="Path_228" data-name="Path 228" d="M899.522,255.33a22.819,22.819,0,0,1-11.39,4.689,25.912,25.912,0,0,0-10.468,3.11c-3.791,2.124-8.015,5.21-9.3,8.969-2.581,7.374-18.8,19.541-26.177,16.96l2.581,22.122s21.016-1.106,24.7-9.217l-6.26,78.941h5.53s2.95-21.384,5.162-25.809,6.637-28.758,7.005-34.658,5.9-39.819,10.692-45.686l7.927-17.144Z" transform="translate(-265.748 -190.988)" fill="#000a41"/>
    <path id="Path_229" data-name="Path 229" d="M932.2,235.2c-.481-3.495.481-5.675.922-9.77L912.11,241.284s.5,2.14.89,5.274a20.041,20.041,0,0,0,3.206.257C923.5,246.814,928.749,241.116,932.2,235.2Z" transform="translate(-279.626 -185.054)" opacity="0.1"/>
    <circle id="Ellipse_33" data-name="Ellipse 33" cx="19.91" cy="19.91" r="19.91" transform="translate(616.63 20.843)" fill="#fec3be"/>
    <path id="Path_230" data-name="Path 230" d="M890.055,197.576a25.2,25.2,0,0,1,1.6-9.851,2.461,2.461,0,0,0,.417,3.206,15.773,15.773,0,0,1,5-8.865c-1.419.232-2.148,1.988-1.8,3.382a7.694,7.694,0,0,0,2.461,3.463,6.186,6.186,0,0,1,3.038-5.234,18.227,18.227,0,0,1,5.931-2.148,3.439,3.439,0,0,0-2.276,3.527.987.987,0,0,0,.3.681,1.13,1.13,0,0,0,.673.176,51.6,51.6,0,0,0,6.228-.136,65.31,65.31,0,0,1,7.671-.409c8.015.337,16.07,5.811,17.866,13.626a31.326,31.326,0,0,1,.585,5.755l.393,9.867a36.063,36.063,0,0,1-.353,8.624,18.274,18.274,0,0,1-9.386,12.407c-2.893-4.192-3.15-9.578-4.152-14.572a7.374,7.374,0,0,0-1.25-3.206,2.813,2.813,0,0,0-3.086-1.042,1.772,1.772,0,0,0-.649,2.821c-.8.946-2.3.24-3.206-.6a17.218,17.218,0,0,1-4.993-8.921c-.361-1.715-.721-3.831-2.4-4.416a4.472,4.472,0,0,0-1.779-.12c-3.511.24-9,1.691-12.4.577C891.37,205.151,890.055,200.534,890.055,197.576Z" transform="translate(-275.245 -176.34)" opacity="0.1"/>
    <path id="Path_231" data-name="Path 231" d="M890.515,197.116a25.2,25.2,0,0,1,1.6-9.851,2.461,2.461,0,0,0,.417,3.206,15.774,15.774,0,0,1,5-8.865c-1.419.232-2.148,1.988-1.8,3.382a7.7,7.7,0,0,0,2.461,3.463,6.185,6.185,0,0,1,3.038-5.234,18.227,18.227,0,0,1,5.931-2.148,3.438,3.438,0,0,0-2.276,3.527.986.986,0,0,0,.3.681,1.13,1.13,0,0,0,.673.176,51.6,51.6,0,0,0,6.228-.136,65.311,65.311,0,0,1,7.67-.409c8.015.337,16.07,5.811,17.866,13.626a31.342,31.342,0,0,1,.585,5.755l.393,9.867a36.066,36.066,0,0,1-.353,8.624,18.275,18.275,0,0,1-9.386,12.407c-2.893-4.192-3.15-9.578-4.152-14.572a7.372,7.372,0,0,0-1.25-3.206,2.813,2.813,0,0,0-3.086-1.042,1.772,1.772,0,0,0-.649,2.821c-.8.946-2.3.24-3.206-.6a17.217,17.217,0,0,1-4.993-8.921c-.361-1.715-.721-3.831-2.4-4.416a4.473,4.473,0,0,0-1.779-.12c-3.511.24-9,1.691-12.4.577C891.83,204.683,890.515,200.074,890.515,197.116Z" transform="translate(-275.336 -176.249)" fill="#784f69"/>
    <path id="Path_232" data-name="Path 232" d="M840.805,297.42s-2.95,13.626,2.581,22.122l3.134-.256-1.707-21.641Z" transform="translate(-265.317 -199.343)" opacity="0.1"/>
    <path id="Path_233" data-name="Path 233" d="M841.805,297.42s-2.95,13.626,2.581,22.122l3.134-.256-1.707-21.641Z" transform="translate(-265.515 -199.343)" fill="#2d85d5"/>
    <path id="Path_234" data-name="Path 234" d="M934.512,251l23.781,20.463s14.01,14.379,8.111,37.607c0,0-2.581,33.92-5.531,35.395,0,0-10.324,20.647-11.061,40.188,0,0-13.826-27.837-20.094-10.877s-20.839,19.357-20.839,19.357l8.111-100.318S937.462,257.236,934.512,251Z" transform="translate(-278.984 -190.129)" opacity="0.1"/>
    <path id="Path_235" data-name="Path 235" d="M935.432,251l23.781,20.463s14.01,14.379,8.111,37.607c0,0-2.581,33.92-5.53,35.395,0,0-10.324,20.647-11.061,40.188,0,0-14.564-29.311-20.839-12.351S909.8,393.141,909.8,393.141l8.111-100.278S938.382,257.236,935.432,251Z" transform="translate(-279.167 -190.129)" fill="#000a41"/>
    <path id="Path_236" data-name="Path 236" d="M951.378,358.65s5.9-4.056,15.485,7.005l-23.6,42.769-7.927-11.967S952.116,363.443,951.378,358.65Z" transform="translate(-284.236 -211.352)" fill="#fec3be"/>
    <path id="Path_237" data-name="Path 237" d="M948.22,360.268s13.049,14.652,18.138,12.3l4.713-10.973L953.382,354Z" transform="translate(-286.793 -210.573)" opacity="0.1"/>
    <path id="Path_238" data-name="Path 238" d="M948.22,359.348s13.049,14.652,18.138,12.3l4.713-10.973-17.689-7.6Z" transform="translate(-286.793 -210.39)" fill="#2d85d5"/>
    <path id="Path_239" data-name="Path 239" d="M935.772,402.51s6.212,12.728,9.522,13.465l-4.809,5.53-7.005-13.273Z" transform="translate(-283.867 -220.201)" opacity="0.1"/>
    <path id="Path_240" data-name="Path 240" d="M935.308,403s6.212,12.728,9.522,13.465L940.021,422,933,408.7Z" transform="translate(-283.772 -220.299)" fill="#4d4981"/>
    <path id="Path_241" data-name="Path 241" d="M949.972,304.78s.737,26.546-2.212,36.5" transform="translate(-286.702 -200.804)" opacity="0.1"/>
    <path id="Path_242" data-name="Path 242" d="M876,309.942s4.424-1.475,4.424-5.162" transform="translate(-272.458 -200.804)" opacity="0.1"/>
    <path id="Path_243" data-name="Path 243" d="M202.741,316.76s-21.016,43.474-7.214,94.923,9.418,113.014-4.344,128.242" transform="translate(-136.463 -203.181)" fill="none" stroke="#535461" stroke-miterlimit="10" stroke-width="2"/>
    <circle id="Ellipse_34" data-name="Ellipse 34" cx="5.795" cy="5.795" r="5.795" transform="translate(60.483 107.792)" fill="#6a52df"/>
    <path id="Path_244" data-name="Path 244" d="M194.79,350.658s21.785,3.927,27.58-4.008" transform="translate(-137.249 -209.114)" fill="none" stroke="#535461" stroke-miterlimit="10" stroke-width="2"/>
    <path id="Path_245" data-name="Path 245" d="M189.136,361.656s-13.1-14.5-12.383-23.2" transform="translate(-133.663 -207.489)" fill="none" stroke="#535461" stroke-miterlimit="10" stroke-width="2"/>
    <path id="Path_246" data-name="Path 246" d="M190.82,395.578s11.919,3.142,22.8-20.038" transform="translate(-136.461 -214.848)" fill="none" stroke="#535461" stroke-miterlimit="10" stroke-width="2"/>
    <path id="Path_247" data-name="Path 247" d="M188.266,416.865s-29.656-19.084-26.041-31.4" transform="translate(-130.724 -216.819)" fill="none" stroke="#535461" stroke-miterlimit="10" stroke-width="2"/>
    <path id="Path_248" data-name="Path 248" d="M200.57,442.833s20.775-18.435,18.6-36.573" transform="translate(-138.396 -220.946)" fill="none" stroke="#535461" stroke-miterlimit="10" stroke-width="2"/>
    <path id="Path_249" data-name="Path 249" d="M197.034,463.21s-26.45-7.39-25.648-18.98" transform="translate(-132.6 -228.482)" fill="none" stroke="#535461" stroke-miterlimit="10" stroke-width="2"/>
    <path id="Path_250" data-name="Path 250" d="M205.69,480.847S222.354,465.41,224.526,456" transform="translate(-139.412 -230.818)" fill="none" stroke="#535461" stroke-miterlimit="10" stroke-width="2"/>
    <path id="Path_251" data-name="Path 251" d="M202.726,512.3s-17.1-19.958-17.826-30.1" transform="translate(-135.286 -236.019)" fill="none" stroke="#535461" stroke-miterlimit="10" stroke-width="2"/>
    <path id="Path_252" data-name="Path 252" d="M207.14,532.585s19.132-21.256,20.575-31.4" transform="translate(-139.7 -239.788)" fill="none" stroke="#535461" stroke-miterlimit="10" stroke-width="2"/>
    <circle id="Ellipse_35" data-name="Ellipse 35" cx="5.795" cy="5.795" r="5.795" transform="translate(37.295 126.627)" fill="#6a52df"/>
    <circle id="Ellipse_36" data-name="Ellipse 36" cx="5.795" cy="5.795" r="5.795" transform="translate(30.779 209.953)" fill="#6a52df"/>
    <circle id="Ellipse_37" data-name="Ellipse 37" cx="5.795" cy="5.795" r="5.795" transform="translate(25.705 162.856)" fill="#6a52df"/>
    <circle id="Ellipse_38" data-name="Ellipse 38" cx="5.795" cy="5.795" r="5.795" transform="translate(79.327 131.701)" fill="#6a52df"/>
    <circle id="Ellipse_39" data-name="Ellipse 39" cx="5.795" cy="5.795" r="5.795" transform="translate(79.327 220.821)" fill="#6a52df"/>
    <circle id="Ellipse_40" data-name="Ellipse 40" cx="5.795" cy="5.795" r="5.795" transform="translate(69.909 154.889)" fill="#6a52df"/>
    <circle id="Ellipse_41" data-name="Ellipse 41" cx="5.795" cy="5.795" r="5.795" transform="translate(81.499 259.23)" fill="#6a52df"/>
    <circle id="Ellipse_42" data-name="Ellipse 42" cx="5.795" cy="5.795" r="5.795" transform="translate(42.369 244.009)" fill="#6a52df"/>
    <circle id="Ellipse_43" data-name="Ellipse 43" cx="5.795" cy="5.795" r="5.795" transform="translate(75.704 179.519)" fill="#6a52df"/>
  </g>
</svg>
